<svg width="259" height="11" viewBox="0 0 259 11" fill="none" xmlns="http://www.w3.org/2000/svg">
<path d="M3.34481 0.491641C4.78795 0.328334 6.68694 0.424284 8.1321 0.582625C8.585 0.631627 8.36238 0.901802 8.6753 0.947561C9.2873 1.03672 9.85232 0.893872 10.4576 1.00294C10.6582 1.04039 10.4192 1.46574 10.6293 1.49539C11.7808 1.65489 12.8637 1.52347 14.028 1.58656C19.7628 1.89811 25.3942 1.93209 31.1944 2.00324C33.107 2.0263 35.4378 2.36013 37.4086 2.15464C37.6387 2.13027 37.494 1.76455 37.5373 1.73332C38.2159 1.25492 38.0018 2.0032 38.4528 2.09323C40.2427 2.44854 42.2247 2.44476 43.9374 2.27087C44.6659 2.19583 43.9208 1.47749 44.6631 1.87474C44.7147 1.90156 44.5367 2.29621 44.7376 2.33427C45.1931 2.41978 46.0528 2.33423 46.4051 2.35893C47.0841 2.40848 47.1962 2.40255 47.8374 2.39566C48.714 2.38967 49.7598 2.56606 50.6987 2.46142C50.8991 2.43792 50.6266 2.04134 50.9456 1.96765C51.2649 1.89405 52.1132 1.91385 52.4006 2.00368C52.688 2.09354 52.5715 2.41081 52.6233 2.48223C53.0494 3.08521 54.0161 2.22452 54.142 2.20162C56.4368 1.80853 58.4174 2.25956 60.5765 2.22696C62.2161 2.20119 63.9666 2.01831 65.5272 2.01988C67.3862 2.02332 68.9641 2.22156 70.7692 2.16374C70.9598 2.15811 70.7311 1.689 70.9639 1.68117C73.4364 1.59852 75.8933 1.6254 78.3586 1.92255C78.6058 1.95277 78.2911 2.3696 78.5383 2.42456C80.0518 2.75165 82.4461 3.55147 83.3311 1.74271C84.355 1.80618 85.5979 1.87142 86.5152 2.22991C87.1065 2.46065 86.5358 2.91481 87.2597 2.71852C87.423 2.6748 87.2083 2.28081 87.4534 2.24512C88.4853 2.09524 89.6137 2.2187 90.6343 2.01079C90.8419 1.96757 90.7839 1.61378 90.8426 1.54982C91.3357 1.03172 92.1625 1.88252 92.3421 1.94403C93.7106 2.40246 94.7084 2.21837 95.9822 2.22787C96.2778 2.2303 95.9277 1.75525 96.2122 1.74052C97.6873 1.67051 99.2162 1.71106 100.66 1.92327C100.982 1.97163 100.686 2.37642 100.839 2.42026C101.516 2.60868 101.667 1.84384 102.316 2.01016C102.453 2.04425 102.375 2.39087 102.4 2.429C102.79 3.02745 103.131 2.1811 103.232 2.16261C104.504 1.90983 105.314 2.79649 106.542 2.67578C106.689 2.66046 106.359 2.22046 106.772 2.20424C109.525 2.09363 112.435 2.23167 115.156 2.6053C115.579 2.66281 115.274 2.98986 115.3 3.03071C115.729 3.66917 116.017 2.82109 116.155 2.79027C117.247 2.56932 118.257 3.29272 119.008 2.2874C119.417 2.3229 119.826 2.35129 120.235 2.37424C124.434 2.60978 128.626 2.27332 132.779 3.17534C132.837 3.1869 132.725 3.60388 132.841 3.62513C134.233 3.88576 133.976 3.22998 134.914 2.45126C135.151 2.25574 135.843 3.23072 135.904 3.30242C136.127 3.56653 135.878 4.18502 135.953 4.2368C136.579 4.64409 136.516 2.58128 137.37 2.59779C137.396 2.60177 137.277 2.9788 137.347 3.01796C137.567 3.14086 137.791 2.99463 138.006 3.12966C138.497 3.44202 138.653 4.44694 139.428 3.88031C139.526 3.80674 139.404 2.63464 140.165 2.7062C140.469 2.73565 141.813 2.74507 142.186 2.82933C142.561 2.91344 142.294 3.2843 142.321 3.30121C143.326 3.82223 142.936 4.01997 143.428 4.76898C143.919 5.51526 143.818 3.75994 144.03 3.56917C144.242 3.37895 144.975 3.80729 145.154 3.95449C145.333 4.10172 145.1 4.33567 145.26 4.42038C146.32 4.97432 145.752 3.56196 146.114 3.29237C146.969 2.65413 147.589 3.96946 148.35 4.11583C148.556 4.15537 148.394 3.85523 148.579 3.83216C149.309 3.74472 149.74 4.16132 150.583 3.81104C150.72 3.75397 151.413 2.99024 151.832 3.57493C151.892 3.65921 151.708 3.97838 152.017 4.05908C152.478 4.1801 153.313 4.27317 153.818 4.17853C154.19 4.10845 153.781 3.56349 154.242 3.74182C154.446 3.82143 154.055 4.12312 154.44 4.24666C154.823 4.37008 155.808 4.38345 156.182 4.3831C156.555 4.38246 156.362 3.97212 156.393 3.94569C156.58 3.7946 157.309 3.61975 157.372 3.62203C160.572 3.66284 163.521 4.43325 166.639 4.30359C166.883 4.29399 166.734 3.86228 166.771 3.85642C167.619 3.70375 166.92 4.81762 167.496 5.21562C167.438 4.3471 167.78 4.51466 168.374 4.43822C168.66 4.40068 168.516 4.06055 168.543 4.02704C168.981 3.53105 169.253 4.19804 169.324 4.33497C169.587 4.83872 169.908 4.26348 170.086 4.60031C170.266 4.93471 169.811 5.40754 170.381 5.41941C170.55 5.11455 170.153 4.29111 170.59 4.1736C172.233 3.72865 175.243 4.46293 176.536 4.57193C177.84 4.68109 178.264 4.63807 179.016 4.77532C180.371 5.02346 179.894 4.4059 180.757 4.15956C181.622 3.91339 181.156 5.37788 181.269 5.69987C181.378 6.02164 181.521 5.69904 181.664 5.87875C181.808 6.05839 181.478 6.26359 181.826 6.34101C182.176 6.41842 183.143 5.88537 183.285 5.55749C183.574 4.86242 183.165 4.10867 184.09 4.40009C184.143 4.41733 183.955 4.80017 184.159 4.84645C185.77 5.20093 187.471 5.27785 189.072 5.59785C189.292 5.64246 189.079 6.06814 189.207 6.099C190.561 6.4225 190.098 5.6765 190.869 4.89196C190.665 5.96425 191.055 6.63802 192.073 6.67936C192.692 6.70484 192.603 6.23041 193.016 5.91234C193.14 5.81645 193.567 6.15476 193.653 5.93605C193.938 5.22116 193.558 4.3969 194.6 4.75565C194.645 4.77256 194.485 5.16373 194.644 5.19319C195.665 5.38541 195.834 4.6332 196.953 4.57958C197.82 4.53713 199.392 5.0526 200.377 5.16079C200.312 6.37205 201.27 6.1263 201.685 5.30345C202.337 5.35945 203.031 5.33509 203.654 5.47117C203.871 5.51773 203.716 5.86395 203.742 5.90277C204.145 6.51146 204.455 5.70761 204.597 5.68031C206.113 5.41946 207.356 6.07596 208.805 5.51801C208.858 5.49793 208.969 4.65858 209.341 5.2854C209.365 5.32855 208.871 5.69685 209.557 5.74755C210.242 5.79832 211.503 6.28801 212.471 5.9254C212.704 5.83817 213.292 5.17092 213.743 5.71809C213.804 5.79238 213.729 6.03196 213.816 6.1689C214.097 6.60534 214.28 5.75864 214.602 6.4911C214.93 7.22368 215.59 7.78373 216.583 7.31007C216.614 7.29635 216.86 6.62758 217.159 6.6458C217.637 6.67548 218.304 6.83237 218.816 6.83992C219.058 6.84321 218.913 6.42065 218.955 6.41397C219.435 6.35574 219.867 6.34911 220.279 6.37371C221.314 6.43334 222.2 6.67028 223.436 6.80562C223.748 6.84158 224.666 6.28474 225.277 6.74485C225.946 7.24822 225.204 9.29716 226.782 8.82551C227.409 8.63629 228.229 6.03443 229.331 7.39328C231.512 7.07045 233.514 7.76078 235.706 7.25688C235.806 7.23452 236.111 6.50221 236.338 6.50886C236.674 6.52019 236.867 6.85758 237.117 6.87577C238.133 6.96089 239.076 6.64777 240.057 6.66334C240.427 6.66832 240.317 7.02419 240.765 7.02888C241.201 7.03314 241.502 6.55841 242.101 6.75744C242.575 6.90803 243.063 7.83438 243.69 7.9119C243.659 6.9773 244.088 6.97534 244.805 6.68328C244.947 6.62635 244.771 6.31152 244.837 6.26784C245.107 6.0827 245.358 6.33605 245.616 6.13481C245.677 6.08657 245.657 5.76799 245.704 5.71058C246.093 5.21213 246.871 5.86861 247.01 5.98156C247.515 6.41422 247.708 5.97886 248.089 6.12926C248.472 6.27872 247.952 6.56599 248.387 6.63598C249.292 6.78103 250.43 6.58795 251.321 6.48499C251.675 6.44282 251.379 6.05171 251.428 6.03586C251.559 5.99891 251.697 5.98011 251.828 5.96987C252.43 5.92173 253.003 6.0331 253.264 5.30718C254.008 7.43611 253.686 5.04276 254.796 5.3871C254.885 5.41557 255.07 6.44121 254.769 6.61924C254.47 6.79721 253.963 6.51933 253.55 6.80254C253.453 6.8682 252.97 7.90123 252.902 7.96916C252.334 8.50025 252.053 6.97476 252.007 6.89428C251.982 6.85071 251.956 6.81224 251.93 6.77848C251.45 6.14277 250.902 7.17108 250.727 7.26233C249.874 7.70618 249.09 7.57646 248.361 7.88767C247.875 8.08955 247.932 9.10394 247.531 9.10897C246.219 9.11918 245.676 7.73557 244.539 9.03665C244.299 9.31277 244.604 10.4094 243.63 9.58729C243.563 9.53593 242.839 8.7726 242.456 9.29452C242.408 9.3604 242.424 9.68358 242.357 9.71368C241.927 9.90805 241.61 9.66264 241.134 9.80332C240.661 9.94382 240.078 10.1464 239.523 10.0517C239.174 9.99566 238.753 9.40279 238.587 9.25893C238.122 8.84443 237.665 9.55051 237.378 9.04071C237.088 8.52825 237.625 7.73323 236.88 7.4114C236.867 8.25234 236.815 9.11609 236.786 9.96204C235.174 9.9575 233.604 9.69626 231.995 9.73447C231.796 9.74001 232 10.1919 231.786 10.2094C230.863 10.2811 230.095 9.95642 229.158 10.0791C228.442 10.1757 227.631 10.6473 226.881 10.7597C226.415 9.7929 225.316 10.1059 224.485 10.0052C224.194 9.97039 224.219 9.7138 224.021 9.62687C223.273 9.30474 223.611 10.1603 223.401 10.2906C222.491 10.8459 222.432 8.92067 221.389 8.94775C221.335 8.94862 220.623 9.95981 220.524 10.0215C220.285 10.1767 220.216 10.1593 220.199 10.0743C220.175 9.93858 220.28 9.63012 220.055 9.57858C219.383 9.42534 218.914 9.16967 218.087 9.45027C217.853 9.53366 217.284 10.1591 216.839 9.65317C216.78 9.58692 216.822 9.24888 216.774 9.22781C215.906 8.8745 215.846 9.93824 215.347 10.2859C214.845 10.6333 214.09 9.87689 213.937 9.66058C213.537 9.10099 214.261 9.43524 214.284 9.38202C214.564 8.74924 213.998 8.84396 213.562 8.77755C213.528 7.7318 212.937 7.77772 213.124 8.71324C213.146 8.81549 213.476 8.72739 213.562 8.77755C213.16 9.79134 212.507 9.90403 211.801 8.92535C211.473 8.4667 211.801 7.95305 210.767 8.11374C210.3 8.18617 210.458 8.91037 210.039 9.09386C209.074 9.51217 207.87 8.80361 206.889 8.87818C206.531 8.90521 206.866 9.30969 206.621 9.3417C205.961 9.42758 205.423 9.11474 204.771 9.24497C204.712 9.25727 204.841 9.67375 204.641 9.67248C203.099 9.67023 201.808 9.36334 200.211 9.30245C199.458 9.27384 198.052 9.45368 197.274 9.38147C195.906 9.25815 194.229 8.60111 193.049 8.70624C192.275 8.77289 192.429 9.19057 192.088 9.45982C191.442 9.9823 190.355 8.96931 190.207 8.81318C190.203 8.80804 190.867 8.73363 190.522 8.51009C190.332 8.06248 190.215 8.81153 190.207 8.81318C190.113 8.71233 188.787 8.57316 188.53 8.64317C188.387 8.68135 188.453 9.07432 188.379 9.08684C186.605 9.37558 184.845 9.41461 183.051 9.171C183.02 9.16204 183.082 8.72714 183.008 8.71152C181.987 8.48253 181.308 8.9942 180.44 9.28239C179.566 9.57022 178.908 9.44196 178.426 8.67562C177.782 8.74857 176.859 8.38627 176.338 8.1678C175.817 7.94933 175.714 8.79667 175.667 8.81193C174.196 9.30184 173.357 8.78756 171.856 8.66342C171.14 8.60284 169.7 8.68035 168.925 8.74903C168.309 8.80456 167.944 8.59379 167.372 8.70341C167.294 8.71802 167.36 9.09883 167.336 9.11266C166.687 9.54563 167.021 8.63011 166.895 8.46082C166.436 7.84529 166.16 7.51643 165.341 7.77425C165.153 7.83326 164.568 9.14857 164.224 9.21613C163.777 9.30152 163.959 8.82917 163.49 8.93078C163.45 8.93905 163.448 9.23379 163.163 9.21221C161.846 9.11624 160.389 8.90181 159.015 8.89185C158.827 8.88935 159.054 9.36347 158.782 9.36755C157.506 9.38634 156.098 9.32952 154.864 9.07691C154.559 9.01323 154.76 8.69136 154.697 8.59241C154.304 7.99353 153.701 8.83177 153.604 8.84547C151.316 9.1946 149.585 8.37651 147.258 8.68735C147.131 8.70581 146.134 9.59755 145.717 8.802C145.688 8.74905 145.279 7.93549 144.887 8.47579C144.863 8.5096 145.12 8.92945 144.655 8.87632C144.189 8.82328 143.431 9.08201 142.798 8.61301C142.598 8.46524 142.132 7.65293 141.514 8.27834C141.474 8.32202 140.508 9.74589 140.195 8.74216C140.144 8.57696 140.224 7.52349 139.487 8.04875C139.347 8.15064 139.593 8.3912 139.225 8.53036C138.66 8.74488 137.928 8.44711 137.233 8.90307C137.112 8.98381 136.589 9.68939 136.191 9.13802C136.129 9.05167 136.257 8.70197 136.042 8.65832C135.017 8.44906 133.942 8.66433 132.904 8.40182C132.536 8.30955 132.735 7.74373 132.353 7.58429C131.971 7.4249 131.195 7.26462 130.79 7.51795C130.383 7.77136 130.807 8.68599 130.204 8.74845C127.577 9.01982 124.988 8.44937 122.373 8.3389C121.985 8.32247 122.302 8.65106 121.73 8.65025C121.27 8.64996 120.737 8.66231 120.165 8.67463C118.117 8.7185 115.579 8.76409 114.152 8.21385C112.69 7.65015 114.539 7.24342 113.42 7.01015C112.879 6.89888 112.286 7.94978 112.156 7.98212C110.878 8.31101 109.994 7.83869 108.845 7.97632C108.608 8.00491 108.838 8.43359 108.637 8.45321C107.947 8.52402 107.224 8.33009 106.565 8.36253C106.269 8.37807 106.323 8.70482 106.051 8.67866C105.401 8.61984 104.826 8.48084 104.193 8.17314C104.135 8.14511 104.526 7.73989 104.045 7.72355C103.266 7.69829 102.299 7.39451 101.402 7.70526C101.135 7.79876 101.124 8.54502 100.553 8.02913C100.433 7.9214 100.587 7.02527 99.9204 7.79924C99.8081 7.9278 98.6896 8.97195 98.1404 8.299C97.9955 8.12186 97.6255 7.38868 97.3056 7.50418C97.2622 7.5226 97.4363 7.92335 97.1713 7.96266C96.2374 8.09424 95.2583 8.0529 94.2987 8.1805C94.0425 8.21537 94.425 8.62937 94.0433 8.66811C92.9936 8.77526 91.6824 8.67358 90.6547 8.54761C90.2758 8.50037 90.5363 8.15576 90.5086 8.11847C90.0632 7.5119 89.8044 8.33399 89.6576 8.38246C88.7443 8.67293 88.0461 8.29057 87.2034 8.39697C86.9708 8.42531 87.1379 8.8159 87.0917 8.85105C86.6133 9.19463 86.9673 8.48973 86.6629 8.41387C85.81 8.19904 84.8606 8.23615 83.9994 8.29176C83.6831 8.31277 84.0417 8.76435 83.7578 8.77797C82.0779 8.86722 80.3308 8.83707 78.6884 8.60085C78.3792 8.55555 78.5705 8.20438 78.5055 8.12511C78.0569 7.57039 77.4132 8.33801 77.2643 8.41194C76.587 8.74947 76.3199 8.44288 75.7196 8.50632C72.7878 8.82144 69.1615 8.65783 66.3891 8.56694C62.7761 8.45044 59.9689 8.15822 56.5258 8.29795C56.307 8.30642 56.535 8.76789 56.3465 8.78116C53.9123 8.9313 51.511 8.7894 49.072 8.96619C48.8719 8.97987 49.1683 9.41557 48.8474 9.45235C48.1892 9.5309 47.3534 9.52174 46.6841 9.39299C46.3576 9.33103 46.7871 8.94501 46.4586 8.89037C45.6936 8.7623 44.876 8.74582 44.0942 8.83096C43.7615 8.86815 44.2726 9.30959 43.8396 9.32281C40.8899 9.42226 37.9942 9.5562 35.0003 9.03262C34.7951 8.99666 34.5971 8.08421 34.166 8.26869C34.1384 8.52359 34.1462 8.82261 34.1374 9.09464C29.8445 9.3282 25.5854 9.10121 21.2751 9.14655C21.0934 9.14857 21.418 9.62705 21.0662 9.63343C19.0303 9.67092 17.0565 9.8493 14.9631 9.41359C14.7554 9.37105 14.8422 8.51481 14.2362 8.65762C14.1293 8.6836 13.2147 8.81811 12.9817 9.00882C12.9501 9.03751 13.1264 9.43228 12.8312 9.45056C11.115 9.54982 9.31305 9.49969 7.5928 9.29525C7.31515 9.2615 7.60019 8.83037 7.40235 8.80264C5.99901 8.6092 4.48546 8.96659 3.14051 8.61181C2.2402 8.37281 2.55453 7.6316 2.06275 6.92033C1.99319 6.81998 1.43899 6.81651 1.40073 6.39701C1.30303 5.34216 1.54481 4.17914 1.40897 3.0555C1.38016 2.81347 0.644407 3.0917 1.07015 2.49548C1.09993 2.45555 1.63324 2.2487 1.76114 2.04682C1.85022 1.90723 1.67426 1.48373 1.85838 1.30343C2.0425 1.1233 2.25744 1.47676 2.56464 1.26285C2.87165 1.04639 2.72343 0.563425 3.34481 0.491641ZM173.977 7.19079C173.496 6.76658 173.374 8.25889 173.921 7.9187C173.947 7.90049 174.002 7.21164 173.977 7.19079ZM233.607 8.56479C232.961 7.9084 232.504 8.87897 232.973 9.38714C233.441 9.8945 233.803 8.76367 233.607 8.56479ZM240.301 7.96929C239.538 7.47221 239.481 9.5952 240.27 9.1427C240.318 9.11696 240.347 7.99804 240.301 7.96929ZM4.26207 6.66428C4.25482 6.64458 3.85627 6.63434 3.8472 6.65423C3.64607 7.13391 4.44301 7.15408 4.26207 6.66428ZM246.929 7.08372C246.672 6.81819 246.016 7.20076 246.339 7.53358C246.602 7.80181 247.255 7.41436 246.929 7.08372ZM148.352 4.84609C148.345 4.82362 148.061 4.79646 148.063 4.92254C148.072 5.32861 148.472 5.22402 148.352 4.84609ZM258.089 6.03719C256.466 5.97481 255.323 4.29471 257.197 4.41736C257.531 4.44348 256.494 4.9975 256.923 5.14214C257.695 5.40576 258.203 4.30552 258.986 4.89471C259.126 5.00237 258.18 6.04369 258.086 6.03966C258.087 6.03884 258.088 6.03802 258.089 6.03719ZM173.751 5.3862C173.742 5.36612 173.344 5.33443 173.335 5.35378C173.105 5.82132 173.902 5.8853 173.751 5.3862ZM131.712 3.56541C131.691 3.52283 130.774 3.46761 130.744 3.50598C130.253 4.27401 132.105 4.38789 131.712 3.56541ZM200.391 5.19364C200.829 4.73043 201.359 4.69191 201.683 5.30277C201.255 5.25668 200.812 5.23716 200.391 5.19364Z" fill="#F5C939"/>
</svg>
