<svg width="220" height="10" viewBox="0 0 220 10" fill="none" xmlns="http://www.w3.org/2000/svg">
<path d="M2.09748 0.0508482C3.3113 -0.0794165 4.94118 0.0598612 6.15594 0.251023C6.53697 0.310312 6.34409 0.575355 6.60665 0.628214C7.11494 0.73126 7.60712 0.601266 8.12067 0.724016C8.29106 0.765994 8.07901 1.18582 8.25761 1.22023C9.24031 1.40575 10.137 1.29879 11.1357 1.388C15.9976 1.82811 20.7799 1.98533 25.6934 2.17542C27.312 2.23774 29.2713 2.61816 30.9639 2.45086C31.1592 2.43096 31.0426 2.0625 31.0797 2.03212C31.6609 1.56693 31.4678 2.31093 31.8455 2.40961C33.3673 2.79922 35.0284 2.83232 36.4997 2.68919C37.1165 2.62722 36.4986 1.89568 37.1178 2.30611C37.1607 2.33384 37.0054 2.72526 37.1736 2.76689C37.548 2.86052 38.2916 2.79006 38.5905 2.82085C39.1678 2.88216 39.2624 2.87815 39.8015 2.88218C40.5286 2.89111 41.4447 3.08484 42.2283 2.99543C42.3967 2.97518 42.1735 2.57424 42.4417 2.50572C42.7007 2.43733 43.4407 2.47059 43.6807 2.5649C43.9242 2.65925 43.8208 2.97465 43.864 3.04688C44.2198 3.65649 45.0408 2.81072 45.1446 2.7897C47.1211 2.43136 48.7661 2.91029 50.6121 2.9057C51.9894 2.90123 53.4698 2.73935 54.8121 2.75791C56.3676 2.78167 57.7333 2.99522 59.2479 2.95273C59.406 2.94871 59.2192 2.47769 59.4121 2.47182C61.5142 2.40965 63.5888 2.45223 65.6791 2.75788C65.8941 2.78891 65.6201 3.20472 65.8346 3.26047C67.1023 3.59337 69.1485 4.39428 69.895 2.58291C70.5925 2.63416 71.4723 2.68357 72.1547 2.89882C72.2996 2.94324 72.4394 2.99456 72.5721 3.05434C73.07 3.27857 72.5996 3.73957 73.2043 3.53398C73.3407 3.48795 73.1529 3.09712 73.3582 3.05788C74.2196 2.89296 75.1754 2.99139 76.0292 2.75833C76.2034 2.70997 76.1437 2.35777 76.1915 2.29237C76.589 1.76234 77.3187 2.59068 77.4719 2.64733C78.6438 3.06881 79.4903 2.85668 80.5684 2.83177C80.8188 2.82621 80.5064 2.36088 80.7478 2.33844C82.0077 2.2282 83.2958 2.22916 84.5341 2.40524C84.8119 2.4455 84.5689 2.85756 84.7025 2.89752C85.2745 3.06937 85.3976 2.30072 85.9432 2.45161C86.06 2.48242 86.0038 2.83077 86.026 2.86828C86.3743 3.45715 86.6438 2.603 86.726 2.58222C87.8081 2.29944 88.5055 3.16775 89.5523 3.01968C89.6755 3.00115 89.387 2.56851 89.7346 2.54324C91.4354 2.41848 93.2179 2.42605 94.9557 2.5631C95.587 2.61424 96.2437 2.6826 96.8624 2.76879C97.2234 2.81758 96.9709 3.15083 96.9942 3.19113C97.3736 3.8206 97.6037 2.96671 97.7173 2.93309C98.6361 2.68967 99.5061 3.39166 100.128 2.37047C104.049 2.67194 107.936 2.06145 111.826 2.92924C111.876 2.93925 111.791 3.35906 111.89 3.37722C113.079 3.60033 112.842 2.95164 113.62 2.14744C113.817 1.94549 114.426 2.90082 114.48 2.97076C114.676 3.22849 114.482 3.85372 114.547 3.90336C115.088 4.29288 114.981 2.23273 115.704 2.22485C115.727 2.22806 115.636 2.60836 115.697 2.64548C115.887 2.76202 116.072 2.60942 116.258 2.73816C116.684 3.03613 116.846 4.0361 117.485 3.44686C117.566 3.3704 117.43 2.20254 118.077 2.25137C118.335 2.27183 119.476 2.24052 119.796 2.31311C120.116 2.38563 119.901 2.76454 119.924 2.78063C120.789 3.27029 120.465 3.47998 120.904 4.21325C121.342 4.94374 121.205 3.19245 121.379 2.99511C121.553 2.79832 122.188 3.20307 122.345 3.34441C122.501 3.48582 122.31 3.72714 122.449 3.80665C123.368 4.32606 122.841 2.93279 123.139 2.65164C123.842 1.98595 124.41 3.28001 125.059 3.40081C125.235 3.43341 125.088 3.13887 125.245 3.1096C125.866 2.99756 126.239 3.39933 126.943 3.02021C127.058 2.95843 127.621 2.17115 127.994 2.74074C128.047 2.82289 127.903 3.1483 128.166 3.21809C128.565 3.32282 129.277 3.3861 129.697 3.27333C130.011 3.18988 129.645 2.66008 130.043 2.82161C130.219 2.89375 129.897 3.20944 130.228 3.31891C130.559 3.42837 131.39 3.4056 131.713 3.39124C132.031 3.3767 131.852 2.97383 131.878 2.94627C132.032 2.78833 132.638 2.58634 132.691 2.58622C135.418 2.50602 137.921 3.15822 140.576 2.89512C140.783 2.87506 140.639 2.45015 140.671 2.44269C141.375 2.25378 140.83 3.3967 141.334 3.76938C141.249 2.90423 141.551 3.05679 142.048 2.95435C142.287 2.90427 142.151 2.57083 142.173 2.53617C142.274 2.38567 142.367 2.33509 142.45 2.34222C142.658 2.35935 142.803 2.71452 142.85 2.80906C143.097 3.3005 143.344 2.71139 143.508 3.03981C143.673 3.36572 143.311 3.85865 143.79 3.84469C143.922 3.53241 143.547 2.72801 143.915 2.59067C145.283 2.07218 147.861 2.66036 148.968 2.70311C150.076 2.74633 150.433 2.68109 151.073 2.77908C152.247 2.95541 151.797 2.36408 152.518 2.07212C153.23 1.78013 152.916 3.26726 153.027 3.58275C153.138 3.89809 153.243 3.56828 153.374 3.73992C153.505 3.91154 153.236 4.1343 153.535 4.19272C153.83 4.25125 154.639 3.66564 154.732 3.33064C154.939 2.62077 154.555 1.89081 155.348 2.13076C155.394 2.14504 155.257 2.5376 155.431 2.57255C156.818 2.83711 158.252 2.81794 159.636 3.04724C159.827 3.07938 159.668 3.51634 159.78 3.53994C160.935 3.78725 160.506 3.06835 161.115 2.24217C161.001 3.32411 161.366 3.97486 162.236 3.96003C162.761 3.95157 162.659 3.48279 162.99 3.14282C163.088 3.04035 163.469 3.35506 163.53 3.13206C163.735 2.40298 163.365 1.60024 164.275 1.90275C164.314 1.91721 164.198 2.31632 164.334 2.33732C165.218 2.47517 165.309 1.71545 166.26 1.60464C167.006 1.51764 168.35 1.95546 169.197 2.01739C169.204 3.23011 169.991 2.94012 170.313 2.09933C170.625 2.11445 170.956 2.10268 171.287 2.11041C171.526 2.11626 171.764 2.13288 171.994 2.17933C172.179 2.21645 172.062 2.56904 172.086 2.60669C172.453 3.19738 172.675 2.38128 172.796 2.34799C174.084 2.02326 175.148 2.62976 176.372 2.01705C176.416 1.99499 176.481 1.15198 176.814 1.76447C176.835 1.80671 176.432 2.19315 177.011 2.21827C177.593 2.24341 178.689 2.68739 179.49 2.29237C179.685 2.19722 180.173 1.51054 180.571 2.0428C180.625 2.11508 180.568 2.35699 180.645 2.49103C180.893 2.91816 181.025 2.06602 181.316 2.788C181.607 3.50996 182.212 4.04887 183.02 3.54679C183.045 3.53219 183.236 2.8566 183.491 2.86639C183.897 2.88259 184.478 3.02142 184.902 3.01594C185.106 3.01306 184.974 2.59434 185.01 2.58658C186.379 2.34838 187.354 2.72045 188.822 2.8819C189.09 2.91231 189.865 2.34078 190.384 2.79288C190.954 3.28786 190.369 5.34452 191.679 4.8558C192.21 4.66045 192.886 2.05136 193.834 3.40611C195.679 3.0759 197.39 3.77531 199.241 3.30894C199.323 3.28828 199.592 2.56161 199.789 2.57293C200.081 2.59114 200.237 2.93279 200.442 2.9568C201.319 3.06614 202.107 2.7819 202.952 2.83611C203.27 2.85598 203.149 3.2067 203.532 3.23067C203.919 3.25446 204.162 2.79369 204.684 3.02442C205.064 3.20012 205.452 4.15314 205.952 4.27144C205.953 4.24916 205.954 4.22743 205.955 4.20622C206.007 3.33838 206.358 3.3562 206.977 3.12658C207.1 3.08096 206.975 2.7533 207.034 2.71495C207.274 2.55168 207.471 2.82517 207.705 2.64739C207.76 2.60467 207.769 2.28561 207.815 2.23269C208.192 1.77015 208.802 2.50265 208.901 2.63029C209.303 3.11521 209.494 2.70517 209.805 2.90105C210.105 3.09682 209.643 3.31706 209.994 3.44089C210.739 3.69758 211.702 3.68073 212.461 3.73377C212.764 3.75305 212.579 3.31705 212.623 3.30993C213.254 3.23373 213.859 3.72981 214.275 2.91455C214.513 5.14327 214.675 2.72086 215.547 3.29175C215.62 3.34025 215.515 4.37348 215.25 4.48552C214.988 4.59847 214.636 4.23097 214.25 4.43543C214.153 4.48172 213.593 5.41351 213.523 5.46846C212.977 5.8927 212.986 4.34224 212.965 4.25521C212.686 3.31786 212.018 4.33505 211.85 4.40061C211.095 4.69994 210.467 4.46118 209.832 4.67932C209.42 4.82054 209.349 5.83492 209.033 5.7956C207.971 5.66647 207.624 4.24254 206.589 5.45279C206.382 5.69611 206.552 6.6978 205.925 6.07414C205.888 6.03559 205.848 5.99082 205.804 5.93926C205.764 5.88352 205.183 5.07611 204.853 5.57696C204.811 5.64008 204.808 5.96362 204.753 5.99007C204.379 6.16093 204.136 5.9001 203.733 6.01881C203.319 6.13742 202.848 6.31637 202.38 6.20201C202.108 6.13369 201.756 5.52759 201.622 5.37881C201.249 4.95027 200.846 5.64407 200.613 5.12738C200.382 4.60813 200.844 3.82585 200.236 3.48685C200.207 4.32728 200.148 5.18968 200.105 6.03477C198.758 5.99521 197.432 5.71607 196.078 5.74761C195.911 5.75238 196.08 6.20498 195.901 6.22175C195.141 6.29053 194.481 5.96623 193.693 6.09252C193.084 6.19202 192.417 6.66921 191.778 6.78891C191.392 5.82644 190.444 6.15209 189.758 6.06415C189.518 6.03375 189.534 5.77685 189.362 5.69304C188.718 5.38317 189.02 6.23317 188.843 6.36698C188.084 6.93828 188.018 5.01428 187.123 5.06293C187.075 5.06484 186.497 6.0913 186.417 6.15533C185.911 6.57271 186.333 5.79851 186.015 5.72334C185.435 5.58604 185.032 5.34206 184.352 5.64442C184.154 5.73396 183.681 6.37467 183.294 5.88162C183.243 5.81705 183.27 5.47797 183.229 5.45826C182.488 5.13007 182.476 6.19536 182.054 6.55788C181.633 6.92032 180.982 6.18819 180.846 5.97698C180.496 5.43053 181.112 5.74134 181.13 5.68748C181.347 5.04619 180.872 5.15869 180.508 5.10652C180.45 4.06241 179.943 4.12787 180.132 5.05667C180.153 5.15811 180.435 5.05919 180.508 5.10652C180.196 6.13287 179.637 6.26717 179.017 5.31349C178.727 4.86656 178.995 4.34139 178.118 4.53874C177.721 4.62792 177.883 5.34592 177.531 5.54452C176.73 5.99768 175.691 5.33546 174.86 5.44912C174.561 5.49035 174.856 5.88118 174.652 5.92293C174.111 6.03502 173.629 5.74466 173.083 5.90208C173.033 5.91685 173.159 6.32751 172.989 6.33469C172.421 6.36238 171.874 6.32882 171.342 6.28389C170.659 6.22794 169.986 6.15431 169.24 6.16211C168.595 6.16884 167.434 6.41651 166.767 6.38385C165.602 6.32927 164.156 5.76158 163.164 5.93063C162.518 6.03907 162.669 6.44783 162.398 6.73524C161.876 7.29226 160.9 6.34143 160.768 6.19379C160.764 6.18888 161.321 6.07768 161.017 5.87369C160.833 5.43737 160.775 6.19172 160.768 6.19379C160.682 6.09834 159.561 6.03344 159.342 6.11797C159.223 6.16413 159.3 6.55274 159.238 6.56943C157.75 6.95748 156.256 7.09596 154.729 6.95122C154.702 6.94399 154.731 6.50635 154.668 6.49481C153.785 6.32239 153.228 6.87021 152.515 7.20418C151.795 7.53813 151.212 7.44487 150.771 6.70453C150.22 6.81109 149.429 6.49617 148.975 6.30418C148.521 6.11223 148.471 6.96354 148.432 6.98115C147.207 7.54344 146.464 7.07053 145.184 7.01702C144.57 6.99025 143.363 7.13329 142.695 7.2364C142.636 7.24562 142.58 7.25142 142.525 7.25463C142.103 7.28012 141.804 7.13962 141.371 7.25919C141.306 7.27716 141.378 7.65472 141.358 7.66959C140.827 8.13022 141.073 7.2011 140.96 7.03743C140.553 6.44207 140.289 6.12568 139.609 6.41771C139.452 6.4846 139.007 7.82322 138.714 7.90499C138.336 8.00882 138.476 7.52933 138.084 7.65011C138.05 7.66 138.062 7.95456 137.818 7.94468C136.68 7.90278 135.456 7.74613 134.273 7.7894C134.114 7.79416 134.324 8.25914 134.093 8.2737C133.009 8.34166 131.812 8.3377 130.753 8.13041C130.492 8.07791 130.651 7.74891 130.594 7.65236C130.241 7.06823 129.753 7.92774 129.673 7.94486C127.737 8.37601 126.248 7.61814 124.274 8.00611C124.167 8.0288 123.346 8.95285 122.97 8.17116C122.945 8.11916 122.571 7.31931 122.253 7.8719C122.234 7.90647 122.466 8.31785 122.067 8.27965C121.669 8.24154 121.033 8.52411 120.482 8.07503C120.307 7.93357 119.891 7.1361 119.382 7.78011C119.348 7.82505 118.566 9.2776 118.272 8.28366C118.224 8.12004 118.262 7.06476 117.652 7.61166C117.535 7.71767 117.751 7.95083 117.443 8.10081C116.971 8.33193 116.338 8.05568 115.76 8.53136C115.659 8.61555 115.233 9.3358 114.879 8.79589C114.824 8.71133 114.924 8.35815 114.74 8.32058C113.867 8.14025 112.953 8.38504 112.066 8.15043C111.751 8.06803 111.906 7.49711 111.577 7.34791C111.248 7.19876 110.59 7.05883 110.248 7.32258C109.908 7.58641 110.292 8.4898 109.78 8.56777C107.554 8.90645 105.341 8.39827 103.117 8.3467C102.785 8.33902 103.063 8.66039 102.575 8.67239C100.779 8.71768 97.7028 9.06252 96.1342 8.3965C94.8747 7.86287 96.4398 7.41844 95.4839 7.20807C95.3294 7.17431 95.1738 7.27246 95.0318 7.41883C94.7414 7.70716 94.5062 8.18239 94.4332 8.2056C93.3673 8.56044 92.5944 8.10691 91.6348 8.26872C91.4354 8.30233 91.641 8.72598 91.4684 8.74994C90.8802 8.83556 90.2672 8.65728 89.7123 8.70418C89.4663 8.72616 89.5191 9.05164 89.2856 9.03158C88.7324 8.98727 88.2416 8.86134 87.7022 8.5682C87.6533 8.54149 87.9685 8.12753 87.5671 8.12213C86.8969 8.1151 86.0838 7.83393 85.3276 8.16661C85.1036 8.26662 85.1261 9.01251 84.6199 8.5112C84.5159 8.40651 84.6167 7.50694 84.0813 8.29713C83.9856 8.42853 83.071 9.50067 82.5922 8.84227C82.4615 8.66907 82.1243 7.94599 81.8616 8.06978C81.8249 8.08936 81.9869 8.48522 81.7607 8.53165C80.9776 8.68787 80.1468 8.67325 79.3379 8.82708C79.1209 8.86899 79.4615 9.27219 79.1357 9.32149C78.248 9.45738 77.1324 9.39166 76.246 9.29158C75.9217 9.25377 76.1332 8.90285 76.1084 8.86627C75.7073 8.27109 75.5133 9.09867 75.3853 9.15064C74.6061 9.46201 73.991 9.09374 73.2583 9.21228C73.0565 9.24382 73.2085 9.63205 73.1689 9.66783C72.7534 10.0176 73.0534 9.30831 72.7857 9.23609C72.6114 9.1883 72.431 9.15392 72.2498 9.12986C71.6837 9.05018 71.0673 9.08544 70.4894 9.13024C70.2144 9.15222 70.5225 9.60278 70.286 9.61712C68.8519 9.7108 67.3429 9.67869 65.9578 9.43717C65.6885 9.39091 65.8555 9.04034 65.7989 8.96086C65.4115 8.40474 64.8793 9.16961 64.7462 9.24291C64.1523 9.57753 63.9438 9.26949 63.4307 9.32972C60.9247 9.62938 57.8413 9.4345 55.4836 9.31387C52.4175 9.1587 50.0293 8.83023 47.0999 8.92064C46.9161 8.92594 47.1022 9.39066 46.9436 9.40119C44.8632 9.51607 42.8347 9.33649 40.7574 9.47257C40.5852 9.48291 40.8341 9.92349 40.5572 9.95491C39.9884 10.0224 39.2984 9.99902 38.7257 9.85869C38.448 9.79108 38.8203 9.41256 38.5406 9.35224C37.8817 9.2109 37.1973 9.17996 36.5337 9.25104C36.2508 9.28225 36.6782 9.73281 36.3101 9.73824C33.7928 9.78449 31.3459 9.86319 28.8025 9.28023C28.6301 9.24019 28.4788 8.32399 28.1101 8.49981C28.0824 8.75411 28.0839 9.05322 28.0719 9.32502C24.4217 9.47254 20.8076 9.15548 17.1393 9.10671C16.9869 9.10476 17.2505 9.59021 16.9552 9.58891C15.2435 9.58189 13.5463 9.71648 11.7845 9.23402C11.6081 9.18683 11.6992 8.33276 11.1781 8.46195C11.0849 8.48552 10.3021 8.59945 10.1059 8.78486C10.0788 8.81282 10.2197 9.21147 9.97083 9.22309C8.52603 9.28367 6.97252 9.19268 5.53195 8.94912C5.29708 8.90905 5.54724 8.48452 5.37989 8.4523C4.18667 8.22695 2.89795 8.54967 1.76677 8.16423C1.0062 7.9047 1.2876 7.17087 0.882118 6.44853C0.824885 6.34662 0.350809 6.33047 0.326075 5.91021C0.263051 4.8534 0.492983 3.69621 0.398643 2.56976C0.378989 2.32713 -0.257996 2.58846 0.119153 2.00214C0.145651 1.9629 0.606654 1.7683 0.719725 1.5694C0.798575 1.43188 0.656505 1.00447 0.817349 0.828434C0.978119 0.652564 1.15466 1.01084 1.42022 0.80402C1.68539 0.594636 1.56937 0.108407 2.09748 0.0508482ZM146.921 5.44507C146.498 5.04455 146.463 6.5409 146.907 6.17482C146.929 6.15535 146.943 5.46469 146.921 5.44507ZM197.444 4.58874C196.903 3.92637 196.525 4.89463 196.908 5.40581C197.288 5.91648 197.611 4.78957 197.444 4.58874ZM203.11 4.15073C202.478 3.62395 202.354 5.74348 203.042 5.32195C203.082 5.29814 203.146 4.18133 203.11 4.15073ZM2.75345 6.24284C2.74781 6.22298 2.41149 6.20363 2.40335 6.22331C2.22425 6.69827 2.89683 6.73665 2.75345 6.24284ZM208.729 3.71772C208.545 3.42616 207.95 3.74428 208.194 4.10648C208.396 4.39782 208.962 4.08029 208.729 3.71772ZM125.084 4.13057C125.076 4.10836 124.835 4.09073 124.841 4.21665C124.861 4.62218 125.197 4.50427 125.084 4.13057ZM218.148 4.60138C216.723 4.29304 216.294 2.39985 217.699 2.87151C217.961 2.95448 217.025 3.3179 217.337 3.53483C217.924 3.93293 218.514 2.90867 219.078 3.59028C219.18 3.715 218.23 4.62353 218.145 4.6034C218.146 4.60273 218.147 4.60206 218.148 4.60138ZM146.648 3.65356C146.64 3.63394 146.303 3.62136 146.295 3.64111C146.121 4.11914 146.801 4.14476 146.648 3.65356ZM110.933 3.34738C110.915 3.30541 110.134 3.2741 110.109 3.3132C109.711 4.09375 111.288 4.15937 110.933 3.34738ZM169.211 2.04951C169.573 1.56607 170.004 1.50334 170.311 2.09875C169.939 2.07228 169.581 2.07303 169.211 2.04951Z" fill="#F5C939"/>
</svg>
