<svg width="176" height="11" viewBox="0 0 176 11" fill="none" xmlns="http://www.w3.org/2000/svg">
<path d="M1.70453 10.9395C2.69152 11.0642 3.98355 10.9176 4.96499 10.7208C5.27258 10.6598 5.11515 10.3956 5.32742 10.3416C5.74256 10.2361 6.13061 10.3639 6.54074 10.2388C6.67665 10.1961 6.50479 9.77723 6.64736 9.74201C7.42863 9.55203 8.16935 9.65476 8.96135 9.56102C12.8625 9.09854 16.6988 8.91914 20.6491 8.70541C21.9516 8.6353 23.5333 8.2453 24.8799 8.40427C25.0372 8.42321 24.9456 8.79223 24.9756 8.82243C25.4471 9.28472 25.287 8.54169 25.5925 8.44112C26.8052 8.04396 28.1559 8.00235 29.3259 8.13792C29.8236 8.19667 29.329 8.93143 29.8275 8.51776C29.8622 8.48981 29.7337 8.09921 29.8699 8.0567C30.1787 7.96107 30.766 8.02768 31.0056 7.99532C31.4673 7.93096 31.5437 7.93446 31.9808 7.92752C32.5781 7.91462 33.2876 7.71607 33.9291 7.80109C34.0661 7.8204 33.8872 8.22257 34.1058 8.2896C34.3246 8.35651 34.9022 8.31921 35.0964 8.22354C35.2907 8.12782 35.206 7.81301 35.2401 7.74054C35.5202 7.12896 36.1934 7.96997 36.2795 7.99038C37.8494 8.33746 39.1912 7.84856 40.6629 7.84157C41.7802 7.83728 42.9758 7.98937 44.0388 7.96155C45.3052 7.92684 46.3774 7.70337 47.6081 7.73375C47.7379 7.73649 47.5884 8.209 47.7471 8.21331C49.4324 8.25862 51.1054 8.1977 52.7814 7.86976C52.9494 7.83646 52.7303 7.42358 52.898 7.36555C53.9253 7.01938 55.5491 6.1926 56.1707 7.99211C56.8674 7.91774 57.7134 7.84019 58.335 7.47321C58.7359 7.23701 58.3427 6.7881 58.8378 6.97779C58.9494 7.02005 58.8068 7.41595 58.9741 7.44944C59.6784 7.59007 60.4462 7.45728 61.1432 7.65745C61.285 7.6991 61.2484 8.05332 61.2889 8.11684C61.6289 8.63118 62.1851 7.77458 62.3071 7.71187C63.236 7.24415 63.9172 7.42227 64.7849 7.40604C64.9862 7.40208 64.7509 7.87894 64.9448 7.8922C65.9501 7.95464 66.9909 7.90786 67.9737 7.69128C68.1923 7.64196 67.9887 7.23806 68.0931 7.19376C68.5532 7.0034 68.6598 7.76784 69.1011 7.60003C69.1942 7.56563 69.1397 7.21919 69.1565 7.18101C69.4193 6.5817 69.6554 7.42742 69.724 7.44573C70.5916 7.69633 71.1402 6.80892 71.9777 6.92938C72.0779 6.94468 71.8546 7.38471 72.1361 7.4009C74.0114 7.51136 75.9934 7.37957 77.847 7.0181C78.1352 6.96249 77.9274 6.63408 77.9453 6.59335C78.2376 5.95684 78.4338 6.80634 78.5281 6.83784C79.2716 7.06421 79.9607 6.34695 80.4708 7.3572C83.6118 6.98776 86.7436 7.5389 89.8555 6.61357C89.8951 6.60283 89.8217 6.18431 89.9006 6.16469C90.8514 5.92407 90.6722 6.57618 91.3067 7.36888C91.4665 7.56793 91.9438 6.60381 91.9861 6.5331C92.1403 6.27253 91.9753 5.65021 92.0271 5.59963C92.4561 5.20227 92.3975 7.26375 92.9792 7.26111C92.9974 7.25757 92.9189 6.87863 92.9675 6.84064C93.1185 6.72135 93.2697 6.87125 93.4174 6.73981C93.7554 6.43571 93.8707 5.43351 94.3929 6.01344C94.459 6.08871 94.3653 7.25841 94.8844 7.20023C95.0913 7.17605 96.0079 7.19088 96.2643 7.11366C96.5204 7.03653 96.3421 6.66077 96.3603 6.64436C97.0487 6.14224 96.7855 5.93725 97.1276 5.19772C97.4697 4.46096 97.3836 6.21404 97.5259 6.40885C97.6684 6.6031 98.1729 6.18918 98.2966 6.04558C98.4203 5.90192 98.2637 5.6634 98.3739 5.58188C99.1048 5.04917 98.701 6.44994 98.9444 6.72672C99.5182 7.3821 99.9549 6.07989 100.476 5.94958C100.617 5.91438 100.504 6.21104 100.63 6.23801C101.128 6.3409 101.425 5.93366 101.994 6.30228C102.087 6.36235 102.55 7.14115 102.843 6.56602C102.885 6.48309 102.763 6.15989 102.975 6.08613C103.292 5.97545 103.863 5.90142 104.204 6.00774C104.456 6.08641 104.171 6.62172 104.487 6.45414C104.627 6.37931 104.364 6.06859 104.628 5.95406C104.891 5.83957 105.563 5.84947 105.819 5.85879C106.075 5.86836 105.937 6.27397 105.958 6.30112C106.084 6.45664 106.576 6.64905 106.619 6.64833C108.805 6.68533 110.816 5.99151 112.946 6.20527C113.113 6.22146 113.004 6.64898 113.029 6.65585C113.602 6.83146 113.145 5.69903 113.542 5.31686C113.489 6.18346 113.724 6.02527 114.128 6.11799C114.322 6.16337 114.218 6.4994 114.236 6.53363C114.527 7.04148 114.723 6.38228 114.774 6.24737C114.962 5.75109 115.173 6.33502 115.301 6.00329C115.428 5.67403 115.127 5.1887 115.513 5.19274C115.623 5.50222 115.341 6.31422 115.635 6.4439C116.745 6.9344 118.806 6.28685 119.695 6.21575C120.583 6.14471 120.87 6.2003 121.387 6.08529C122.32 5.87734 121.981 6.48053 122.563 6.75244C123.146 7.02431 122.855 5.54657 122.937 5.22808C123.017 4.90974 123.109 5.23645 123.21 5.06112C123.311 4.88584 123.089 4.67086 123.328 4.6039C123.567 4.537 124.225 5.0988 124.312 5.43084C124.496 6.13429 124.205 6.87535 124.837 6.61195C124.874 6.59633 124.753 6.20801 124.893 6.16791C126 5.86215 127.152 5.83704 128.258 5.56589C128.41 5.528 128.271 5.09604 128.359 5.06909C129.281 4.78706 128.955 5.51858 129.466 6.32625C129.346 5.24824 129.622 4.58671 130.323 4.57636C130.744 4.56976 130.674 5.04128 130.948 5.37177C131.03 5.4714 131.327 5.14623 131.382 5.36748C131.564 6.09069 131.288 6.90302 132.008 6.57609C132.04 6.56057 131.937 6.16471 132.046 6.14008C132.753 5.97891 132.842 6.73596 133.608 6.82335C134.208 6.89193 135.272 6.42393 135.954 6.34493C135.933 5.13228 136.58 5.40631 136.846 6.24098C137.289 6.20423 137.768 6.24878 138.196 6.13077C138.343 6.09053 138.244 5.73997 138.262 5.70192C138.544 5.10516 138.741 5.91755 138.837 5.9489C139.876 6.25303 140.717 5.63167 141.71 6.22861C141.745 6.25011 141.807 7.09218 142.068 6.4756C142.084 6.4331 141.755 6.05168 142.221 6.0194C142.686 5.98705 143.561 5.53048 144.21 5.91716C144.367 6.01024 144.766 6.69185 145.08 6.15574C145.122 6.08295 145.075 5.84161 145.135 5.70682C145.33 5.27731 145.442 6.12815 145.67 5.40348C145.898 4.67884 146.378 4.13438 147.032 4.62974C147.053 4.64413 147.211 5.31811 147.416 5.30628C147.743 5.28681 148.207 5.14358 148.549 5.14603C148.712 5.14745 148.61 5.5671 148.638 5.57461C149.739 5.80318 150.52 5.42515 151.697 5.25632C151.913 5.22454 152.537 5.79246 152.953 5.3383C153.409 4.84113 152.926 2.7865 153.984 3.27065C154.41 3.46427 154.964 6.07127 155.721 4.71465C157.207 5.04131 158.575 4.34142 160.065 4.81143C160.132 4.83225 160.348 5.55949 160.505 5.54869C160.739 5.53123 160.865 5.19004 161.032 5.16666C161.73 5.06014 162.371 5.3478 163.044 5.29866C163.299 5.28075 163.208 4.92922 163.513 4.90781C163.818 4.88673 164.024 5.34914 164.435 5.12291C164.746 4.95048 165.053 4.00119 165.466 3.8884C165.487 4.82293 165.772 4.80206 166.279 5.04591C166.376 5.09322 166.274 5.41911 166.32 5.45827C166.508 5.62487 166.679 5.35429 166.858 5.53578C166.902 5.57937 166.905 5.89854 166.941 5.95219C167.244 6.42053 167.735 5.69976 167.819 5.57427C168.142 5.09767 168.297 5.51193 168.545 5.32356C168.794 5.13521 168.42 4.90365 168.71 4.78856C169.313 4.55049 170.089 4.59763 170.703 4.57948C170.947 4.57421 170.783 5.00121 170.818 5.01035C171.324 5.11553 171.834 4.65943 172.119 5.5065C172.458 3.31016 172.425 5.71761 173.146 5.27422C173.203 5.23837 173.27 4.20027 173.05 4.04917C172.831 3.89821 172.501 4.22446 172.196 3.98871C172.124 3.93339 171.706 2.96335 171.65 2.90476C171.207 2.44692 171.154 3.99796 171.131 4.08327C170.872 5.00391 170.363 3.95921 170.23 3.88758C169.622 3.55935 169.108 3.78035 168.6 3.54649C168.267 3.39537 168.229 2.37979 167.969 2.41237C167.104 2.52005 166.81 3.93875 165.987 2.71477C165.811 2.45372 165.978 1.34254 165.357 2.21908C165.318 2.27433 164.857 3.07559 164.585 2.57197C164.551 2.50847 164.55 2.18492 164.506 2.15799C164.206 1.98387 164.009 2.24277 163.683 2.12116C163.357 1.99956 162.965 1.81774 162.595 1.92959C162.372 1.99648 162.088 2.60093 161.982 2.74912C161.682 3.17599 161.354 2.48076 161.17 2.99666C160.984 3.51516 161.357 4.29886 160.864 4.63599C160.841 3.79549 160.794 2.93293 160.76 2.08772C159.674 2.12349 158.608 2.40137 157.519 2.37042C157.384 2.36574 157.519 1.91305 157.375 1.89638C156.764 1.82806 156.232 2.15324 155.598 2.02855C155.107 1.9303 154.567 1.45487 154.054 1.33724C153.746 2.30091 152.984 1.97869 152.432 2.06973C152.239 2.1012 152.253 2.35803 152.116 2.44263C151.598 2.75555 151.837 1.90415 151.694 1.77119C151.08 1.20375 151.038 3.12801 150.318 3.08456C150.28 3.08291 149.808 2.06 149.743 1.99651C149.333 1.58238 149.678 2.35385 149.423 2.43107C148.957 2.5722 148.635 2.81895 148.086 2.52168C147.926 2.43361 147.539 1.79657 147.232 2.29276C147.192 2.35773 147.217 2.69659 147.184 2.71662C146.592 3.05091 146.57 1.98587 146.229 1.62706C145.888 1.26834 145.368 2.00659 145.262 2.21911C144.986 2.76891 145.477 2.45218 145.493 2.50589C145.674 3.14511 145.291 3.03705 144.999 3.09281C144.963 4.13742 144.554 4.07706 144.697 3.14641C144.713 3.04475 144.941 3.14086 144.999 3.09281C144.737 2.06959 144.287 1.94092 143.797 2.90127C143.567 3.35138 143.79 3.87339 143.084 3.68598C142.763 3.60138 142.883 2.88158 142.599 2.68713C141.952 2.24348 141.117 2.91904 140.452 2.81713C140.21 2.78013 140.443 2.38516 140.278 2.34631C139.839 2.24198 139.455 2.53952 139.014 2.39072C138.974 2.37674 139.069 1.96414 138.933 1.95966C137.896 1.9177 136.995 2.18675 135.913 2.20021C135.39 2.20653 134.454 1.98458 133.912 2.03335C132.974 2.11544 131.822 2.72119 131.02 2.58019C130.496 2.48999 130.608 2.0772 130.383 1.79767C129.947 1.25581 129.187 2.23515 129.085 2.38671C129.082 2.39173 129.532 2.48633 129.293 2.69925C129.156 3.14087 129.09 2.3886 129.085 2.38671C129.018 2.48463 128.119 2.58329 127.94 2.50552C127.843 2.46302 127.895 2.07223 127.844 2.05745C126.64 1.71485 125.435 1.62245 124.217 1.81195C124.195 1.81996 124.23 2.25655 124.18 2.26993C123.475 2.46814 123.02 1.9364 122.436 1.62248C121.852 1.3087 121.391 1.41753 121.05 2.1693C120.61 2.07739 119.982 2.41246 119.621 2.61566C119.259 2.81886 119.204 1.96893 119.172 1.95231C118.173 1.41999 117.601 1.90991 116.569 1.99151C116.078 2.03177 115.104 1.91398 114.572 1.82402C114.151 1.75151 113.899 1.9522 113.512 1.827C113.459 1.81028 113.51 1.43142 113.494 1.41693C113.059 0.966467 113.272 1.89073 113.184 2.05652C112.864 2.65941 112.666 2.98066 112.111 2.70105C111.983 2.63702 111.604 1.30662 111.371 1.23002C111.068 1.13286 111.185 1.60984 110.868 1.49594C110.841 1.48663 110.845 1.19194 110.649 1.20604C109.743 1.26763 108.755 1.44471 107.812 1.42053C107.683 1.41836 107.845 0.950047 107.659 0.939215C106.786 0.888773 105.829 0.911507 104.98 1.1351C104.771 1.19161 104.904 1.51811 104.859 1.61553C104.584 2.20503 104.183 1.35306 104.118 1.33715C102.558 0.935497 101.371 1.71533 99.782 1.35629C99.6955 1.33518 99.0253 0.423206 98.7331 1.21027C98.7131 1.26264 98.4241 2.06783 98.1615 1.51992C98.1452 1.48564 98.3257 1.07094 98.0068 1.11491C97.6878 1.15879 97.1726 0.885468 96.7364 1.34247C96.5983 1.48643 96.2746 2.28984 95.8566 1.65326C95.8293 1.60881 95.1815 0.167709 94.9589 1.1658C94.9228 1.33009 94.9675 2.3847 94.4699 1.84668C94.3748 1.74237 94.545 1.50611 94.2953 1.36061C93.9126 1.13634 93.4089 1.42173 92.9374 0.954502C92.8551 0.871778 92.503 0.157799 92.2269 0.702798C92.1837 0.788154 92.2688 1.13984 92.1216 1.18009C91.4215 1.37312 90.6861 1.14173 89.9756 1.38943C89.7239 1.47648 89.8561 2.04504 89.5941 2.1991C89.3321 2.3531 88.8034 2.50282 88.5268 2.24423C88.2502 1.98552 88.5456 1.07648 88.1331 1.00621C86.3396 0.701061 84.5677 1.24341 82.7791 1.33144C82.5138 1.34457 82.7319 1.01865 82.3409 1.01471C80.899 0.998747 78.4082 0.708475 77.1611 1.40547C76.1619 1.96373 77.4257 2.37724 76.661 2.60645C76.292 2.71581 75.8862 1.66322 75.7968 1.63051C74.9232 1.29812 74.3201 1.76885 73.5348 1.62994C73.3726 1.60111 73.5291 1.17266 73.3911 1.15284C72.9197 1.08137 72.4258 1.27502 71.9756 1.24267C71.7736 1.22718 71.8089 0.900418 71.6233 0.926677C71.1791 0.985746 70.7868 1.12524 70.3552 1.43377C70.3159 1.46188 70.5845 1.86658 70.2557 1.88356C69.7236 1.90988 69.0646 2.21556 68.4504 1.90724C68.2682 1.81448 68.2568 1.0682 67.8692 1.58583C67.7879 1.69395 67.8975 2.58951 67.4381 1.81778C67.3609 1.68954 66.5906 0.649461 66.2194 1.32482C66.1214 1.50256 65.8731 2.23733 65.6539 2.12333C65.6242 2.10511 65.7406 1.70356 65.5593 1.66549C64.9204 1.53828 64.2519 1.58485 63.5956 1.46302C63.4204 1.42969 63.6787 1.01339 63.4176 0.976963C62.6995 0.876189 61.8043 0.9869 61.1034 1.12073C60.845 1.17086 61.0258 1.51347 61.0072 1.55097C60.7079 2.16093 60.5243 1.34096 60.4236 1.29366C59.7972 1.01056 59.3236 1.39892 58.7471 1.30013C58.588 1.27391 58.6985 0.881819 58.6667 0.847094C58.3366 0.507911 58.585 1.20952 58.3778 1.28819C57.7972 1.51092 57.1484 1.48314 56.5598 1.43647C56.3435 1.41874 56.5839 0.963464 56.3898 0.952805C55.2414 0.881113 54.0483 0.931327 52.9294 1.18792C52.7187 1.23706 52.8534 1.58582 52.8099 1.6659C52.5101 2.22614 52.0616 1.46684 51.959 1.39486C51.4925 1.06615 51.3138 1.37626 50.9032 1.3209C48.8971 1.04505 46.4233 1.26382 44.5319 1.40104C42.0673 1.57782 40.1559 1.92119 37.8043 1.84821C37.6548 1.84401 37.8028 1.37819 37.674 1.3686C36.0102 1.26596 34.3739 1.45695 32.7067 1.33212C32.5699 1.3227 32.7645 0.880794 32.5448 0.850859C32.0942 0.786367 31.5241 0.813565 31.0697 0.956898C30.848 1.02597 31.148 1.40252 30.9248 1.46432C30.4053 1.60908 29.8476 1.64365 29.3127 1.57602C29.0851 1.54628 29.4257 1.09351 29.13 1.08999C27.1158 1.05671 25.1375 0.990304 23.1056 1.58565C22.9663 1.62654 22.8491 2.54347 22.5514 2.36945C22.5277 2.1153 22.5272 1.81618 22.5159 1.54445C19.5832 1.4147 16.6832 1.74881 13.7434 1.81463C13.6195 1.8173 13.831 1.33061 13.591 1.33331C12.202 1.34838 10.8525 1.22156 9.43441 1.71216C9.29371 1.76015 9.37089 2.61379 8.95473 2.48699C8.88132 2.46383 8.25499 2.35349 8.09217 2.16901C8.07004 2.14117 8.18193 1.74188 7.98025 1.73141C6.80825 1.67753 5.58094 1.77551 4.41271 2.02573C4.22417 2.06687 4.4276 2.49025 4.29334 2.52324C3.3409 2.75401 2.30169 2.43719 1.39256 2.82781C0.784029 3.0908 1.01404 3.82334 0.693995 4.5475C0.648727 4.64967 0.271084 4.66796 0.253938 5.08834C0.209793 6.14541 0.399331 7.30154 0.330657 8.4284C0.316174 8.67111 -0.191195 8.41267 0.111652 8.99728C0.1328 9.0364 0.500674 9.22891 0.592139 9.42729C0.655815 9.56445 0.544906 9.9925 0.67423 10.1678C0.803543 10.3429 0.942508 9.98386 1.15643 10.1895C1.37026 10.3976 1.27952 10.8844 1.70453 10.9395ZM117.993 3.52397C117.659 3.93418 117.601 2.43901 117.967 2.79474C117.984 2.81371 118.01 3.50384 117.993 3.52397ZM158.621 3.52934C158.185 4.19143 157.879 3.22326 158.186 2.71209C158.493 2.20147 158.753 3.32863 158.621 3.52934ZM163.175 3.98503C162.665 4.50801 162.572 2.38786 163.124 2.81343C163.156 2.83748 163.205 3.95466 163.175 3.98503ZM2.1984 4.74464C2.19388 4.76453 1.92246 4.78543 1.91586 4.76578C1.76857 4.29165 2.31131 4.25019 2.1984 4.74464ZM167.695 4.48365C167.537 4.77142 167.074 4.44289 167.271 4.08506C167.429 3.79718 167.893 4.12568 167.695 4.48365ZM100.486 5.21953C100.481 5.24184 100.286 5.26302 100.29 5.13703C100.3 4.73124 100.572 4.8442 100.486 5.21953ZM175.373 4.46444C174.239 4.55071 173.561 6.30634 174.795 6.10166C175.019 6.06462 174.31 5.54578 174.594 5.38624C175.113 5.09556 175.465 6.19346 175.994 5.60107C176.089 5.49264 175.438 4.45563 175.371 4.46201C175.372 4.46282 175.372 4.46363 175.373 4.46444ZM117.81 5.3213C117.803 5.34111 117.534 5.36139 117.527 5.34182C117.379 4.86789 117.921 4.82675 117.81 5.3213ZM89.1321 6.20873C89.1175 6.25096 88.4923 6.29392 88.4717 6.25521C88.1411 5.4807 89.405 5.39154 89.1321 6.20873ZM135.965 6.31252C136.262 6.78846 136.614 6.8427 136.845 6.2416C136.553 6.2751 136.259 6.28146 135.965 6.31252Z" fill="#F5C939"/>
</svg>
