<svg width="214" height="11" viewBox="0 0 214 11" fill="none" xmlns="http://www.w3.org/2000/svg">
<path d="M2.93773 1.01136C4.12913 0.859069 5.69672 0.969466 6.88965 1.13875C7.26351 1.19119 7.07962 1.45965 7.33792 1.50778C7.84309 1.60157 8.30959 1.46301 8.8092 1.57664C8.97479 1.6156 8.7773 2.03911 8.95076 2.07035C9.90122 2.23853 10.7953 2.11527 11.7564 2.18709C16.4904 2.54156 21.1391 2.61675 25.9271 2.72795C27.5059 2.76423 29.4299 3.11379 31.0568 2.92126C31.2467 2.8984 31.1275 2.53176 31.1632 2.50081C31.7235 2.02689 31.5465 2.77372 31.9188 2.86669C33.3962 3.23365 35.0323 3.24244 36.4462 3.07911C37.0476 3.00856 36.4328 2.28569 37.0454 2.68747C37.0879 2.7146 36.9409 3.10814 37.1067 3.14742C37.4827 3.23572 38.1924 3.15538 38.4832 3.18217C39.0437 3.23579 39.1362 3.23053 39.6655 3.22742C40.3892 3.22659 41.2524 3.40902 42.0275 3.30971C42.1929 3.28735 41.968 2.88924 42.2314 2.81737C42.495 2.74558 43.1953 2.77012 43.4324 2.86153C43.6697 2.95297 43.5734 3.26958 43.6161 3.34129C43.9677 3.9466 44.766 3.0912 44.8699 3.06897C46.7642 2.68824 48.3991 3.14936 50.1814 3.12716C51.5348 3.1093 52.9798 2.93442 54.268 2.94272C55.8025 2.95419 57.105 3.1588 58.595 3.1078C58.7523 3.10289 58.5637 2.63293 58.7558 2.62598C60.7967 2.55258 62.8248 2.58764 64.8596 2.89187C65.0637 2.9228 64.8039 3.33873 65.0079 3.39439C66.2572 3.72589 68.2335 4.53162 68.9642 2.72477C69.8094 2.79055 70.8353 2.85829 71.5924 3.21843C72.0805 3.45023 71.6094 3.90338 72.2069 3.70835C72.3417 3.66491 72.1646 3.27055 72.3668 3.23528C73.2186 3.08715 74.1501 3.21226 74.9925 3.00561C75.1639 2.96265 75.116 2.60879 75.1645 2.54489C75.5715 2.0274 76.2539 2.87908 76.4022 2.94076C77.5318 3.40051 78.3554 3.21713 79.4068 3.22722C79.6508 3.22978 79.3619 2.75457 79.5967 2.73996C80.8143 2.67057 82.0762 2.71122 83.2684 2.92303C83.5336 2.97129 83.2894 3.37616 83.4161 3.41995C83.9745 3.60815 84.0992 2.84325 84.6351 3.00922C84.748 3.04323 84.6839 3.3899 84.7045 3.42801C85.0261 4.02625 85.3076 3.17967 85.3907 3.16111C86.4408 2.9074 87.1093 3.79326 88.1233 3.67105C88.2447 3.65554 87.9725 3.21596 88.3135 3.19921C90.5852 3.08509 92.9876 3.21728 95.2335 3.58333C95.5827 3.63965 95.3309 3.96756 95.3526 4.00833C95.7066 4.64558 95.9444 3.79665 96.0586 3.76543C96.9595 3.54126 97.7935 4.2613 98.4129 3.25337C98.7547 3.28784 99.0964 3.31497 99.438 3.33652C102.9 3.55484 106.356 3.19933 109.781 4.07534C109.828 4.08655 109.736 4.50417 109.832 4.52474C110.981 4.77688 110.769 4.12267 111.543 3.33808C111.738 3.14108 112.31 4.11153 112.36 4.18282C112.545 4.44546 112.339 5.06553 112.402 5.11682C112.918 5.51998 112.866 3.45773 113.57 3.46851C113.592 3.47231 113.493 3.85012 113.552 3.8888C113.734 4.01021 113.918 3.86247 114.095 3.99602C114.501 4.30498 114.63 5.30877 115.27 4.73672C115.351 4.66246 115.249 3.49133 115.878 3.55745C116.129 3.58475 117.238 3.58434 117.546 3.66577C117.856 3.74706 117.636 4.11989 117.657 4.13661C118.488 4.65001 118.166 4.85067 118.572 5.59587C118.978 6.33832 118.894 4.58392 119.069 4.39153C119.244 4.1997 119.849 4.62227 119.997 4.76803C120.144 4.91384 119.952 5.14961 120.084 5.23305C120.96 5.77852 120.49 4.37079 120.788 4.09834C121.494 3.4533 122.007 4.76342 122.635 4.90345C122.805 4.94127 122.672 4.64251 122.824 4.6179C123.427 4.52436 123.783 4.93727 124.478 4.5798C124.592 4.52155 125.163 3.75192 125.51 4.33287C125.559 4.41662 125.407 4.73736 125.662 4.81534C126.043 4.93232 126.732 5.01795 127.149 4.91877C127.456 4.84535 127.118 4.30415 127.498 4.47829C127.667 4.55604 127.344 4.86124 127.662 4.98128C127.979 5.10122 128.792 5.10556 129.101 5.10173C129.409 5.09763 129.25 4.68913 129.275 4.66242C129.429 4.5096 130.031 4.32797 130.083 4.32965C132.725 4.34038 135.159 5.08143 137.733 4.9197C137.935 4.90758 137.811 4.47748 137.842 4.47123C138.542 4.30982 137.966 5.43075 138.441 5.82272C138.393 4.95494 138.676 5.11893 139.166 5.0363C139.402 4.99577 139.283 4.65721 139.305 4.62342C139.666 4.12293 139.891 4.78695 139.95 4.92311C140.168 5.42401 140.432 4.84548 140.58 5.18037C140.728 5.51281 140.353 5.99038 140.823 5.99621C140.963 5.6896 140.635 4.87051 140.995 4.74839C142.351 4.28615 144.837 4.9876 145.905 5.08229C146.981 5.17705 147.331 5.12931 147.952 5.25817C149.071 5.49114 148.677 4.879 149.389 4.62304C150.103 4.3672 149.719 5.83666 149.812 6.15733C149.903 6.47781 150.02 6.15366 150.139 6.33172C150.257 6.50972 149.985 6.7186 150.273 6.79208C150.562 6.86553 151.36 6.32166 151.477 5.99222C151.715 5.294 151.377 4.54503 152.14 4.82591C152.184 4.84254 152.03 5.22744 152.198 5.2714C153.528 5.60755 154.933 5.66501 156.255 5.96664C156.436 6.00872 156.261 6.43676 156.366 6.46615C157.484 6.77407 157.102 6.03352 157.738 5.2403C157.57 6.31473 157.893 6.98389 158.733 7.01358C159.243 7.03196 159.17 6.55864 159.511 6.23591C159.613 6.13861 159.966 6.47199 160.037 6.25233C160.272 5.53432 159.957 4.71455 160.818 5.06134C160.856 5.07773 160.723 5.47066 160.854 5.4983C161.697 5.67882 161.836 4.92484 162.761 4.85851C163.477 4.80622 164.774 5.30384 165.588 5.40102C165.535 6.6128 166.325 6.35638 166.667 5.52909C167.206 5.57784 167.779 5.54586 168.293 5.67509C168.472 5.71926 168.345 6.06712 168.366 6.10565C168.699 6.70983 168.955 5.90276 169.072 5.87393C170.324 5.5967 171.35 6.2399 172.546 5.66707C172.589 5.64645 172.681 4.80608 172.988 5.429C173.008 5.4719 172.6 5.84519 173.167 5.88888C173.733 5.93264 174.773 6.40962 175.572 6.03778C175.765 5.9483 176.251 5.27552 176.623 5.81839C176.673 5.89211 176.611 6.13236 176.683 6.26848C176.915 6.70224 177.066 5.85394 177.332 6.58338C177.604 7.3129 178.148 7.86682 178.968 7.38471C178.994 7.37073 179.196 6.69993 179.443 6.71563C179.838 6.74131 180.388 6.89275 180.811 6.89634C181.011 6.89775 180.891 6.47635 180.926 6.46934C181.327 6.40659 181.688 6.39732 182.033 6.42008C182.882 6.47399 183.61 6.70318 184.625 6.83081C184.883 6.86498 185.64 6.30327 186.145 6.76062C186.697 7.26107 186.085 9.31281 187.387 8.83502C187.906 8.64354 188.581 6.03894 189.492 7.39564C191.292 7.06878 192.945 7.75976 194.753 7.26444C194.836 7.24247 195.088 6.51145 195.275 6.5192C195.554 6.53214 195.711 6.87058 195.918 6.89019C196.758 6.98115 197.534 6.67541 198.346 6.70092C198.649 6.70979 198.56 7.06436 198.929 7.07407C199.29 7.08336 199.538 6.61242 200.033 6.81974C200.424 6.9771 200.826 7.91058 201.344 7.99909C201.32 7.06445 201.674 7.0696 202.266 6.79274C202.383 6.73883 202.238 6.42049 202.293 6.37824C202.517 6.19889 202.722 6.45778 202.936 6.26275C202.987 6.21598 202.971 5.89718 203.01 5.84096C203.332 5.35198 203.974 6.02908 204.088 6.14602C204.506 6.59271 204.666 6.16409 204.98 6.32675C205.297 6.48868 204.865 6.75816 205.226 6.8426C205.973 7.01765 206.916 6.87154 207.653 6.80759C207.946 6.78065 207.702 6.37793 207.743 6.36423C207.853 6.33253 207.969 6.31969 208.079 6.31512C208.575 6.29351 209.046 6.4229 209.263 5.71015C209.874 7.86097 209.612 5.46282 210.529 5.83876C210.602 5.86958 210.754 6.89928 210.505 7.06878C210.258 7.2382 209.838 6.94486 209.496 7.21292C209.416 7.27529 209.015 8.28829 208.958 8.35325C208.487 8.86096 208.258 7.32696 208.22 7.24492C208.201 7.20484 208.182 7.16887 208.163 7.13673C207.765 6.46137 207.305 7.47337 207.16 7.55755C206.452 7.96428 205.805 7.80498 205.202 8.09139C204.801 8.27688 204.844 9.29198 204.514 9.28482C203.43 9.25727 202.984 7.86238 202.044 9.13925C201.845 9.41066 202.094 10.5119 201.292 9.67269C201.237 9.62012 200.641 8.84489 200.324 9.36124C200.284 9.42638 200.296 9.74969 200.241 9.77882C199.888 9.9669 199.624 9.71744 199.232 9.85228C198.841 9.98709 198.361 10.1834 197.903 10.0837C197.614 10.0244 197.268 9.42819 197.131 9.28309C196.746 8.86502 196.37 9.56805 196.133 9.05656C195.894 8.54243 196.337 7.75051 195.722 7.42447C195.711 8.26531 195.667 9.12875 195.644 9.9745C194.312 9.96154 193.018 9.69669 191.69 9.7345C191.526 9.74 191.695 10.1919 191.517 10.2094C190.757 10.2811 190.12 9.95723 189.349 10.0817C188.757 10.1798 188.089 10.6537 187.469 10.7688C187.084 9.80362 186.178 10.1211 185.492 10.0247C185.251 9.99133 185.272 9.73465 185.109 9.64875C184.491 9.33066 184.77 10.1844 184.597 10.3158C183.846 10.8763 183.798 8.95152 182.936 8.98539C182.891 8.98659 182.304 10.0026 182.222 10.065C182.063 10.1915 181.995 10.205 181.968 10.161C181.909 10.0633 182.044 9.6814 181.835 9.62545C181.28 9.47712 180.893 9.22503 180.21 9.51221C180.018 9.59749 179.547 10.2275 179.18 9.72539C179.132 9.65965 179.166 9.32129 179.127 9.30062C178.409 8.95476 178.361 10.019 177.949 10.371C177.535 10.7228 176.911 9.97344 176.785 9.75859C176.454 9.20279 177.052 9.53027 177.071 9.47686C177.302 8.8416 176.834 8.94148 176.475 8.87916C176.447 7.83389 175.958 7.88537 176.113 8.81901C176.132 8.92102 176.404 8.82984 176.475 8.87916C176.145 9.89661 175.604 10.0155 175.021 9.04381C174.75 8.58844 175.02 8.07157 174.167 8.24252C173.781 8.31961 173.913 9.04212 173.567 9.22979C172.77 9.65776 171.777 8.96179 170.966 9.04672C170.671 9.07754 170.947 9.4784 170.745 9.51301C170.2 9.60586 169.756 9.29886 169.218 9.4361C169.169 9.44904 169.276 9.86405 169.11 9.86496C167.837 9.87939 166.771 9.58682 165.454 9.5438C164.832 9.52361 163.67 9.71923 163.029 9.65588C161.899 9.54806 160.514 8.91031 159.539 9.02891C158.9 9.1044 159.028 9.52023 158.747 9.79334C158.215 10.3231 157.316 9.32277 157.194 9.16836C157.191 9.16327 157.738 9.08128 157.453 8.86172C157.296 8.41636 157.2 9.16662 157.194 9.16836C157.115 9.06861 156.021 8.94465 155.809 9.01759C155.691 9.05739 155.746 9.44953 155.684 9.46291C154.22 9.77187 152.767 9.83098 151.286 9.60771C151.26 9.59911 151.311 9.16358 151.25 9.1488C150.408 8.93142 149.847 9.45063 149.13 9.7485C148.408 10.0461 147.866 9.92519 147.467 9.16434C146.936 9.24445 146.173 8.8924 145.743 8.67972C145.312 8.46703 145.228 9.31533 145.19 9.33111C143.976 9.83704 143.283 9.33198 142.043 9.22397C141.451 9.17109 140.263 9.26388 139.624 9.34066C139.115 9.40264 138.814 9.19571 138.341 9.31127C138.277 9.32668 138.331 9.70674 138.312 9.72082C137.776 10.1604 138.051 9.2416 137.947 9.07365C137.569 8.46295 137.34 8.137 136.664 8.40313C136.508 8.46406 136.026 9.78512 135.742 9.85613C135.373 9.94602 135.523 9.4719 135.136 9.57821C135.103 9.58688 135.102 9.88159 134.866 9.86289C133.779 9.7801 132.576 9.57999 131.442 9.5832C131.286 9.58251 131.475 10.0544 131.25 10.0611C130.196 10.0921 129.034 10.0484 128.015 9.8071C127.764 9.74621 127.929 9.42254 127.877 9.32418C127.552 8.72895 127.054 9.57253 126.975 9.58709C125.086 9.9567 123.657 9.15361 121.735 9.48354C121.631 9.50305 120.808 10.4028 120.463 9.61064C120.44 9.55792 120.102 8.7477 119.778 9.29104C119.758 9.32504 119.971 9.74283 119.587 9.69335C119.202 9.64397 118.577 9.90855 118.054 9.44438C117.888 9.29814 117.504 8.48942 116.994 9.11934C116.96 9.16333 116.163 10.5942 115.905 9.59274C115.863 9.42792 115.928 8.37399 115.32 8.90444C115.204 9.00732 115.408 9.24612 115.104 9.38787C114.637 9.60637 114.034 9.31369 113.46 9.7743C113.36 9.85586 112.928 10.5649 112.599 10.0162C112.548 9.93025 112.654 9.57972 112.476 9.53749C111.63 9.33497 110.742 9.55701 109.886 9.30079C109.582 9.21074 109.746 8.64375 109.431 8.48661C109.115 8.32951 108.475 8.17376 108.14 8.42937C107.805 8.68507 108.155 9.59728 107.657 9.66312C105.488 9.94917 103.351 9.39146 101.192 9.29187C100.872 9.27704 101.134 9.60432 100.662 9.60585C100.285 9.6074 99.8489 9.62161 99.3812 9.63594C97.6891 9.68767 95.5867 9.74241 94.406 9.19452C93.1984 8.63453 94.7252 8.22314 93.8008 7.99268C93.3545 7.88274 92.8655 8.93498 92.7576 8.96761C91.7031 9.29933 90.9734 8.82869 90.0249 8.96824C89.8291 8.99721 90.0193 9.42552 89.8527 9.44546C89.2837 9.51739 88.6865 9.32449 88.1427 9.35776C87.8987 9.37367 87.9427 9.70035 87.7184 9.67451C87.1815 9.61645 86.7073 9.47803 86.1844 9.17088C86.1367 9.1429 86.4594 8.73734 86.062 8.72142C85.419 8.69681 84.6207 8.39365 83.8803 8.70476C83.6606 8.79836 83.6515 9.54464 83.18 9.02891C83.0811 8.92121 83.2078 8.02506 82.6576 8.79915C82.565 8.92775 81.6416 9.972 81.1883 9.29896C81.0687 9.1218 80.7632 8.38857 80.4992 8.50399C80.4634 8.5224 80.607 8.92319 80.3883 8.96243C79.6174 9.09376 78.8091 9.05195 78.017 9.17887C77.8055 9.21356 78.1213 9.62784 77.8062 9.6663C76.9397 9.77269 75.8572 9.66969 75.0089 9.54244C74.6962 9.49473 74.9112 9.15044 74.8884 9.11311C74.5207 8.50599 74.307 9.32771 74.1858 9.37599C73.432 9.66519 72.8556 9.28173 72.16 9.38668C71.968 9.41461 72.1058 9.8055 72.0677 9.84056C71.6727 10.1833 71.965 9.47903 71.7137 9.40263C71.0098 9.18627 70.226 9.2215 69.5151 9.27525C69.254 9.29557 69.5499 9.74792 69.3156 9.76093C67.9289 9.8465 66.4867 9.81193 65.131 9.57104C64.8757 9.52486 65.0337 9.17424 64.98 9.09478C64.6098 8.53879 64.0783 9.30448 63.9554 9.37796C63.3962 9.71343 63.1758 9.40601 62.6802 9.46753C60.26 9.77336 57.2666 9.59606 54.9779 9.4933C51.9955 9.36138 49.6783 9.05574 46.8359 9.17767C46.6553 9.18499 46.8434 9.64763 46.6878 9.65992C44.6783 9.79738 42.696 9.64222 40.6826 9.80484C40.5174 9.81736 40.762 10.2548 40.497 10.2897C39.9536 10.3644 39.2637 10.3503 38.7112 10.2175C38.4418 10.1536 38.7964 9.77021 38.5253 9.7136C37.8938 9.58095 37.2188 9.5595 36.5734 9.63981C36.2988 9.67495 36.7206 10.1195 36.3631 10.1301C33.9281 10.2113 31.5376 10.3264 29.0663 9.78279C28.8969 9.74545 28.7338 8.83173 28.3778 9.01329C28.3549 9.26799 28.3613 9.56704 28.354 9.83899C24.81 10.0435 21.2941 9.78629 17.7359 9.80014C17.5859 9.80083 17.8537 10.2816 17.5633 10.2855C15.8826 10.3081 14.2531 10.4718 12.5251 10.0205C12.3537 9.97639 12.4257 9.12087 11.9254 9.25914C11.8371 9.28431 11.082 9.41195 10.8896 9.60089C10.8636 9.62934 11.0089 10.0254 10.7652 10.0415C9.34845 10.1278 7.8609 10.0641 6.4409 9.84657C6.2117 9.81071 6.44718 9.38178 6.28387 9.35255C5.12547 9.14847 3.87587 9.4943 2.76574 9.1293C2.02262 8.88345 2.28241 8.1447 1.87673 7.42974C1.81935 7.32887 1.36185 7.32117 1.33044 6.90141C1.25021 5.84591 1.45029 4.68482 1.33861 3.56025C1.31493 3.31801 0.70744 3.59061 1.05914 2.99769C1.08374 2.95799 1.52408 2.75522 1.62975 2.55433C1.70334 2.41543 1.55826 1.99063 1.71033 1.81175C1.86239 1.63304 2.03968 1.98811 2.29337 1.77656C2.5469 1.56246 2.42474 1.0784 2.93773 1.01136ZM143.793 7.72869C143.395 7.30978 143.296 8.80315 143.747 8.45709C143.769 8.43859 143.814 7.74926 143.793 7.72869ZM193.02 8.56639C192.487 7.9089 192.109 8.87923 192.497 9.38783C192.883 9.89571 193.182 8.76563 193.02 8.56639ZM198.545 8.00922C197.918 7.50439 197.868 9.62663 198.52 9.18211C198.558 9.15691 198.584 8.03845 198.545 8.00922ZM3.69241 7.19048C3.68643 7.17073 3.35742 7.15744 3.34993 7.17727C3.1837 7.65538 3.84157 7.68161 3.69241 7.19048ZM204.019 7.24463C203.809 6.97186 203.264 7.33739 203.532 7.67818C203.749 7.95263 204.288 7.58405 204.019 7.24463ZM122.637 5.63362C122.631 5.61121 122.396 5.58642 122.399 5.71246C122.406 6.11841 122.736 6.01052 122.637 5.63362ZM213.248 6.53783C211.907 6.46964 210.966 4.76561 212.512 4.9133C212.788 4.94264 211.932 5.48626 212.285 5.63534C212.922 5.907 213.342 4.80688 213.988 5.39614C214.104 5.50387 213.323 6.54498 213.246 6.54029C213.246 6.53947 213.247 6.53865 213.248 6.53783ZM143.605 5.92686C143.598 5.90688 143.27 5.87952 143.263 5.89895C143.073 6.36891 143.731 6.42423 143.605 5.92686ZM108.9 4.4717C108.882 4.42927 108.126 4.37933 108.101 4.41785C107.696 5.18866 109.225 5.2919 108.9 4.4717ZM165.6 5.43371C165.961 4.9657 166.398 4.92126 166.666 5.52844C166.312 5.48708 165.947 5.47253 165.6 5.43371Z" fill="#F5C939"/>
</svg>
